<?xml version="1.0" encoding="UTF-8" standalone="yes"?>
<!-- Created with sK1/UniConvertor (http://sk1project.org/) -->
<svg 
  xmlns="http://www.w3.org/2000/svg" 
  xmlns:xlink="http://www.w3.org/1999/xlink"
  viewBox="0 0 595.276 1600"
  x="0px"
  y="0px"
  >
<style type="text/css">
  .st0 { fill: #0088f5; }
</style>
<path class="st0" style="stroke:none;" d="M 103.92 753.57C 108.016 753.456 111.964 754.18 114.48 755.73C 114.305 758.769 112.592 760.861 111.6 763.17C 108.8 769.649 106 776.13 103.2 782.61C 94.8008 802.048 86.3992 821.492 78 840.93C 74.5091 841.973 69.1942 840.826 66.72 839.25C 66.64 838.85 66.56 838.45 66.48 838.05C 74.9592 818.532 83.4408 799.008 91.92 779.49C 94.8633 772.633 98.9698 758.056 103.92 753.57z"/>
<path class="st0" style="stroke:none;" d="M 42.24 754.77C 42.8799 754.85 43.5201 754.93 44.16 755.01C 46.3345 756.585 49.8754 759.332 50.16 762.69C 38.8011 774.289 27.4389 785.891 16.08 797.49C 27.2789 808.689 38.4811 819.891 49.68 831.09C 49.84 831.81 50 832.53 50.16 833.25C 48.8343 836.2 46.207 837.752 44.16 839.97C 43.3601 839.89 42.5599 839.81 41.76 839.73C 28.0014 826.051 14.2386 812.368 0.48 798.69C 0.56 797.89 0.64 797.09 0.72 796.29C 14.5586 782.451 28.4014 768.608 42.24 754.77z"/>
<path class="st0" style="stroke:none;" d="M 131.52 754.77C 136.692 755.147 140.959 762.289 144 765.33C 154.239 775.649 164.481 785.971 174.72 796.29C 174.64 797.09 174.56 797.89 174.48 798.69C 163.921 809.329 153.359 819.971 142.8 830.61C 140.017 833.393 136.372 839.693 131.52 839.97C 128.969 838.707 125.212 835.644 125.04 832.05C 127.545 827.292 133.077 823.533 136.8 819.81C 144.239 812.37 151.681 804.929 159.12 797.49C 147.921 786.291 136.719 775.089 125.52 763.89C 125.36 763.09 125.2 762.29 125.04 761.49C 126.476 758.704 129.195 756.697 131.52 754.77z"/>
<path class="st0" style="stroke:none;" d="M 213.36 758.37C 215.04 758.53 216.72 758.69 218.4 758.85C 218 775.248 217.6 791.651 217.2 808.05C 216.651 811.692 218.147 823.175 216.48 825.09C 214.996 825.874 212.084 825.552 210.24 825.33C 209.173 817.112 208.761 803.554 210 795.33C 210.16 789.17 210.32 783.009 210.48 776.85C 210.8 770.77 211.12 764.689 211.44 758.61C 212.08 758.53 212.72 758.45 213.36 758.37z"/>
<path class="st0" style="stroke:none;" d="M 436.56 758.61C 439.848 758.76 444.252 760.491 445.92 762.45C 445.26 764.563 444.7 767.292 443.28 768.69C 440.284 768.497 434.466 766.838 434.16 763.89C 434.96 762.13 435.76 760.37 436.56 758.61z"/>
<path class="st0" style="stroke:none;" d="M 264.48 762.21C 264.525 782.94 264.841 804.292 263.52 824.37C 261.36 824.37 259.2 824.37 257.04 824.37C 256.96 814.851 256.88 805.329 256.8 795.81C 248.737 795.881 232.665 796.696 226.32 794.61C 226.09 792.637 225.944 790.007 226.56 788.37C 236.719 788.53 246.881 788.69 257.04 788.85C 257.44 779.971 257.84 771.089 258.24 762.21C 260.32 762.21 262.4 762.21 264.48 762.21z"/>
<path class="st0" style="stroke:none;" d="M 293.76 783.09C 299.352 782.91 304.308 783.447 306.96 786.21C 306.079 788.124 305.738 789.927 304.32 791.25C 301.375 790.369 298.055 788.638 294 789.57C 285.617 791.497 278.486 803.329 284.4 813.09C 286.697 816.881 290.474 819.876 296.88 819.57C 298.865 819.475 300.181 818.754 301.68 819.33C 302.08 820.93 302.48 822.53 302.88 824.13C 284.763 830.277 269.054 814.326 276.72 795.81C 280.294 787.177 285.286 786.723 293.76 783.09z"/>
<path class="st0" style="stroke:none;" d="M 345.84 783.09C 351.254 782.908 356.389 783.375 358.8 786.21C 358.541 788.484 357.386 789.474 356.64 791.25C 352.972 790.613 349.505 788.446 344.88 789.81C 335.637 792.535 331.102 806.504 337.92 815.25C 342.686 821.364 346.875 817.897 353.52 819.09C 354.102 820.772 355.116 822.798 354.48 824.37C 338.102 829.814 322.324 816.564 327.84 798.45C 331.154 787.567 336.098 787.225 345.84 783.09z"/>
<path class="st0" style="stroke:none;" d="M 418.56 783.33C 420.792 783.617 422.519 784.517 423.6 785.97C 422.126 792.147 418.385 797.761 415.44 802.77C 409.568 812.757 404.457 822.658 398.4 832.29C 396.24 835.489 394.08 838.69 391.92 841.89C 389.639 841.956 386.49 842.134 384.96 841.41C 384.96 841.33 384.96 841.25 384.96 841.17C 389.04 834.21 393.12 827.249 397.2 820.29C 395.6 818.05 394 815.81 392.4 813.57C 388.884 808.234 379.183 792.769 378.24 786.45C 379.762 785.463 381.854 783.838 383.52 783.81C 386.955 794.842 396.5 803.444 401.04 813.57C 401.2 813.49 401.36 813.41 401.52 813.33C 407.199 803.331 412.881 793.329 418.56 783.33z"/>
<path class="st0" style="stroke:none;" d="M 438 783.33C 439.68 783.57 441.36 783.81 443.04 784.05C 443.628 796.916 443.505 811.872 443.28 825.09C 441.358 825.442 438.754 825.639 436.56 825.33C 435.188 819.783 433.902 789.642 436.08 784.29C 436.24 784.05 436.4 783.81 436.56 783.57C 437.04 783.49 437.52 783.41 438 783.33z"/>
<path class="st0" style="stroke:none;" d="M 461.52 783.33C 463.114 783.241 464.848 783.27 465.6 784.05C 468.222 790.09 467.062 806.516 467.76 814.53C 467.98 817.062 468.486 823.945 467.04 825.09C 465.938 825.747 462.948 825.768 461.52 825.33C 460.508 815.637 459.36 804.857 459.36 793.65C 459.44 790.37 459.52 787.089 459.6 783.81C 460.24 783.65 460.88 783.49 461.52 783.33z"/>
<path class="st0" style="stroke:none;" d="M 479.04 783.33C 489.136 783.18 490.657 789.702 494.88 795.33C 498.371 792.277 500.789 788.673 506.4 787.65C 521.155 784.959 522.555 805.304 519.84 816.93C 519.118 820.02 519.086 823.656 517.2 825.57C 514.846 825.551 513.067 825.047 511.68 824.13C 513.824 816.835 516.399 796.836 508.56 795.09C 502.527 793.746 496.525 803.488 492.72 805.41C 491.421 800.787 485.546 789.075 478.56 790.77C 475.537 791.503 472.463 795.843 470.64 795.09C 470.044 793.419 469.172 792.722 468.96 790.53C 471.332 786.415 474.587 785.461 479.04 783.33z"/>
<path class="st0" style="stroke:none;" d="M 310.8 789.33C 311.04 789.33 311.28 789.33 311.52 789.33C 321.289 796.468 320.956 819.256 307.2 821.73C 306.32 820.13 305.44 818.53 304.56 816.93C 311.836 808.636 315.041 804.274 307.2 793.17C 308.166 791.382 309.485 790.693 310.8 789.33z"/>
<path class="st0" style="stroke:none;" d="M 362.88 789.33C 363.12 789.33 363.36 789.33 363.6 789.33C 373.507 796.591 372.596 818.95 359.28 821.73C 358.4 820.05 357.52 818.37 356.64 816.69C 365.479 810.791 364.896 801.742 359.28 793.17C 360.032 791.324 361.498 790.524 362.88 789.33z"/>
</svg>